<svg width="28" height="32" viewBox="0 0 28 32" fill="none" xmlns="http://www.w3.org/2000/svg">
<path d="M18.9375 0H6.085C4.20737 0 2.67919 1.52925 2.67919 3.40582V15.9999H2.34654C1.58871 15.9999 0.974121 16.6139 0.974121 17.3724V25.6956C0.974121 26.454 1.58865 27.0679 2.34654 27.0679H2.67919V28.5941C2.67919 30.4727 4.20737 31.9999 6.085 31.9999H23.6217C25.4981 31.9999 27.0265 30.4727 27.0265 28.5941V8.06066L18.9375 0ZM4.57454 18.8745C4.97674 18.8065 5.54209 18.7552 6.3386 18.7552C7.14355 18.7552 7.71726 18.9089 8.10274 19.2175C8.47096 19.5084 8.71946 19.9884 8.71946 20.5534C8.71946 21.1182 8.53116 21.5984 8.18856 21.9237C7.74294 22.3431 7.08395 22.5314 6.31305 22.5314C6.14148 22.5314 5.9877 22.5229 5.86744 22.5063V24.5701H4.57454V18.8745ZM23.6217 29.9142H6.085C5.35798 29.9142 4.76595 29.3221 4.76595 28.5941V27.0679H21.1137C21.8717 27.0679 22.4862 26.454 22.4862 25.6956V17.3724C22.4862 16.6139 21.8717 15.9999 21.1137 15.9999H4.76595V3.40582C4.76595 2.67985 5.35804 2.08783 6.085 2.08783L18.1572 2.07521V6.53752C18.1572 7.84091 19.2147 8.89946 20.5191 8.89946L24.8904 8.88691L24.9396 28.5941C24.9396 29.3221 24.3486 29.9142 23.6217 29.9142ZM9.55314 24.544V18.8745C10.0327 18.7981 10.6577 18.7552 11.3173 18.7552C12.4135 18.7552 13.1243 18.9519 13.6813 19.3713C14.2807 19.8169 14.6572 20.5272 14.6572 21.547C14.6572 22.6516 14.255 23.4142 13.6979 23.8848C13.0902 24.3901 12.165 24.6297 11.0348 24.6297C10.358 24.6297 9.87842 24.5868 9.55314 24.544ZM18.8999 21.1873V22.2489H16.8272V24.5701H15.517V18.7981H19.0453V19.8682H16.8272V21.1873H18.8999Z" fill="black"/>
</svg>
