<svg width="84" height="46" viewBox="0 0 84 46" fill="none" xmlns="http://www.w3.org/2000/svg">
<path d="M20.5365 18.2173H17.3501V33.4413H20.5365V18.2173Z" fill="#2C2C2C"/>
<path d="M40.5758 16.8013L43.4436 8.3042H40.5404L37.6726 16.8013H40.5758Z" fill="#2C2C2C"/>
<path d="M19.0842 12.5879C18.5507 12.5934 18.0406 12.8078 17.6634 13.1851C17.2861 13.5623 17.0717 14.0724 17.0662 14.606C17.0662 14.871 17.1184 15.1334 17.2198 15.3782C17.3212 15.6231 17.4698 15.8455 17.6572 16.0329C17.8446 16.2203 18.0671 16.369 18.3119 16.4704C18.5568 16.5718 18.8192 16.624 19.0842 16.624C19.6195 16.624 20.1327 16.4114 20.5112 16.0329C20.8897 15.6545 21.1023 15.1412 21.1023 14.606C21.1023 14.0707 20.8897 13.5574 20.5112 13.179C20.1327 12.8005 19.6195 12.5879 19.0842 12.5879Z" fill="#2C2C2C"/>
<path d="M61.6075 17.4741C59.1291 17.4741 57.3235 18.5363 56.2968 19.7754V17.5272H53.1104V33.4593H56.2968V22.4131C56.7645 21.7846 57.3661 21.2681 58.0581 20.9007C58.75 20.5333 59.5149 20.3243 60.2975 20.2888C62.3864 20.218 63.7317 21.1031 63.7317 23.546V33.4593H66.9182V22.3423C66.9182 18.9611 64.6523 17.4741 61.6075 17.4741Z" fill="#2C2C2C"/>
<path d="M79.2002 0.178711H4.00072C2.9411 0.183369 1.9262 0.606368 1.17693 1.35564C0.427655 2.10492 0.00465932 3.11981 1.5695e-06 4.17944V41.85C-0.000464105 42.3755 0.1027 42.8959 0.30359 43.3815C0.50448 43.8671 0.799154 44.3083 1.17075 44.6799C1.54234 45.0515 1.98356 45.3462 2.46916 45.5471C2.95476 45.748 3.47521 45.8512 4.00072 45.8507H79.2002C79.7257 45.8512 80.2461 45.748 80.7317 45.5471C81.2173 45.3462 81.6585 45.0515 82.0301 44.6799C82.4017 44.3083 82.6964 43.8671 82.8973 43.3815C83.0982 42.8959 83.2013 42.3755 83.2009 41.85V4.16173C83.1916 3.10519 82.7665 2.09481 82.0178 1.34935C81.269 0.603887 80.2567 0.183325 79.2002 0.178711ZM79.2002 43.3724H4.00072C3.8004 43.3738 3.60181 43.3354 3.41647 43.2593C3.23113 43.1833 3.06273 43.0713 2.92108 42.9296C2.77943 42.788 2.66735 42.6196 2.59134 42.4342C2.51533 42.2489 2.47691 42.0503 2.47833 41.85V4.16173C2.47691 3.96141 2.51533 3.76281 2.59134 3.57747C2.66735 3.39212 2.77943 3.22373 2.92108 3.08208C3.06273 2.94043 3.23113 2.82835 3.41647 2.75234C3.60181 2.67633 3.8004 2.63792 4.00072 2.63933H79.1647C79.3651 2.63792 79.5637 2.67633 79.749 2.75234C79.9344 2.82835 80.1027 2.94043 80.2444 3.08208C80.386 3.22373 80.4981 3.39212 80.5741 3.57747C80.6501 3.76281 80.6886 3.96141 80.6871 4.16173V41.7969C80.7019 42 80.6742 42.2041 80.6059 42.396C80.5376 42.5879 80.4301 42.7636 80.2902 42.9117C80.1504 43.0599 79.9813 43.1773 79.7936 43.2566C79.606 43.3359 79.4039 43.3754 79.2002 43.3724Z" fill="#2C2C2C"/>
<path d="M43.7601 11.8092C43.4061 12.8713 43.0875 13.7918 42.8042 14.6061C44.3575 15.2339 45.6887 16.31 46.6282 17.6972C47.5677 19.0843 48.0729 20.7198 48.0795 22.3951C48.08 23.4972 47.8633 24.5885 47.4417 25.6068C47.0202 26.625 46.4022 27.5502 45.6229 28.3294C44.8437 29.1087 43.9185 29.7268 42.9002 30.1483C41.882 30.5698 40.7907 30.7865 39.6886 30.786C38.5866 30.7865 37.4953 30.5698 36.477 30.1483C35.4588 29.7268 34.5336 29.1087 33.7543 28.3294C32.9751 27.5502 32.357 26.625 31.9355 25.6068C31.514 24.5885 31.2973 23.4972 31.2977 22.3951C31.3021 20.6297 31.8618 18.9104 32.8975 17.4807C33.9332 16.051 35.3925 14.9834 37.0687 14.4291C37.4935 13.1899 37.8476 12.1278 38.1662 11.1719C35.44 11.5374 32.9392 12.8804 31.1288 14.9513C29.3185 17.0221 28.3217 19.6799 28.3237 22.4305C28.3228 25.4466 29.5193 28.3397 31.6503 30.474C33.7814 32.6084 36.6725 33.8094 39.6886 33.8131C42.7016 33.8094 45.5902 32.6108 47.7207 30.4803C49.8512 28.3498 51.0498 25.4613 51.0535 22.4483C51.0563 20.1454 50.3608 17.8957 49.0587 15.9963C47.7566 14.0969 45.9091 12.6369 43.7601 11.8092Z" fill="#2C2C2C"/>
</svg>
